<?xml version="1.0" encoding="UTF-8" standalone="no"?>
<!DOCTYPE svg PUBLIC "-//W3C//DTD SVG 1.1//EN"
 "http://www.w3.org/Graphics/SVG/1.1/DTD/svg11.dtd">
<!-- Generated by graphviz version 2.40.1 (20161225.0304)
 -->
<!-- Title: dependencies Pages: 1 -->
<svg width="993pt" height="284pt"
 viewBox="0.00 0.00 993.00 284.00" xmlns="http://www.w3.org/2000/svg" xmlns:xlink="http://www.w3.org/1999/xlink">
<g id="graph0" class="graph" transform="scale(1 1) rotate(0) translate(4 280)">
<title>dependencies</title>
<polygon fill="#ffffff" stroke="transparent" points="-4,4 -4,-280 989,-280 989,4 -4,4"/>
<text text-anchor="start" x="471.5091" y="-42.4" font-family="sans-serif" font-weight="bold" font-size="14.00" fill="#000000">Legend</text>
<polygon fill="#ffffb3" stroke="transparent" points="258.5,-10 258.5,-30 278.5,-30 278.5,-10 258.5,-10"/>
<text text-anchor="start" x="282.129" y="-15.4" font-family="sans-serif" font-size="14.00" fill="#000000"> &#160;Declarations</text>
<polygon fill="#8dd3c7" stroke="transparent" points="371.5,-10 371.5,-30 391.5,-30 391.5,-10 371.5,-10"/>
<text text-anchor="start" x="395.2251" y="-15.4" font-family="sans-serif" font-size="14.00" fill="#000000"> &#160;Module</text>
<polygon fill="#80b1d3" stroke="transparent" points="457.5,-10 457.5,-30 477.5,-30 477.5,-10 457.5,-10"/>
<text text-anchor="start" x="481.2812" y="-15.4" font-family="sans-serif" font-size="14.00" fill="#000000"> &#160;Bootstrap</text>
<polygon fill="#fdb462" stroke="transparent" points="554.5,-10 554.5,-30 574.5,-30 574.5,-10 554.5,-10"/>
<text text-anchor="start" x="578.1732" y="-15.4" font-family="sans-serif" font-size="14.00" fill="#000000"> &#160;Providers</text>
<polygon fill="#fb8072" stroke="transparent" points="650.5,-10 650.5,-30 670.5,-30 670.5,-10 650.5,-10"/>
<text text-anchor="start" x="674.2258" y="-15.4" font-family="sans-serif" font-size="14.00" fill="#000000"> &#160;Exports</text>
<g id="clust1" class="cluster">
<title>cluster_DetailModule</title>
<polygon fill="none" stroke="#000000" stroke-dasharray="1,5" points="8,-70 8,-268 977,-268 977,-70 8,-70"/>
</g>
<g id="clust2" class="cluster">
<title>cluster_DetailModule_declarations</title>
<polygon fill="none" stroke="#000000" points="345,-78 345,-130 969,-130 969,-78 345,-78"/>
</g>
<g id="clust7" class="cluster">
<title>cluster_DetailModule_imports</title>
<polygon fill="none" stroke="#000000" points="16,-78 16,-130 337,-130 337,-78 16,-78"/>
</g>
<g id="clust8" class="cluster">
<title>cluster_DetailModule_exports</title>
<polygon fill="none" stroke="#000000" points="260,-208 260,-260 743,-260 743,-208 260,-208"/>
</g>
<!-- ConquestComponent -->
<g id="node1" class="node">
<title>ConquestComponent</title>
<polygon fill="#ffffb3" stroke="#000000" points="961.219,-122 826.781,-122 826.781,-86 961.219,-86 961.219,-122"/>
<text text-anchor="middle" x="894" y="-99.8" font-family="Times,serif" font-size="14.00" fill="#000000">ConquestComponent</text>
</g>
<!-- DetailModule -->
<g id="node5" class="node">
<title>DetailModule</title>
<polygon fill="#8dd3c7" stroke="#000000" points="558.7577,-187 555.7577,-191 534.7577,-191 531.7577,-187 465.2423,-187 465.2423,-151 558.7577,-151 558.7577,-187"/>
<text text-anchor="middle" x="512" y="-164.8" font-family="Times,serif" font-size="14.00" fill="#000000">DetailModule</text>
</g>
<!-- ConquestComponent&#45;&gt;DetailModule -->
<g id="edge1" class="edge">
<title>ConquestComponent&#45;&gt;DetailModule</title>
<path fill="none" stroke="#000000" d="M894,-122.1061C894,-141.3391 894,-169 894,-169 894,-169 568.8407,-169 568.8407,-169"/>
<polygon fill="#000000" stroke="#000000" points="568.8407,-165.5001 558.8407,-169 568.8407,-172.5001 568.8407,-165.5001"/>
</g>
<!-- ConquestsComponent -->
<g id="node2" class="node">
<title>ConquestsComponent</title>
<polygon fill="#ffffb3" stroke="#000000" points="808.6638,-122 669.3362,-122 669.3362,-86 808.6638,-86 808.6638,-122"/>
<text text-anchor="middle" x="739" y="-99.8" font-family="Times,serif" font-size="14.00" fill="#000000">ConquestsComponent</text>
</g>
<!-- ConquestsComponent&#45;&gt;DetailModule -->
<g id="edge2" class="edge">
<title>ConquestsComponent&#45;&gt;DetailModule</title>
<path fill="none" stroke="#000000" d="M701.875,-122.027C701.875,-138.3976 701.875,-160 701.875,-160 701.875,-160 568.9354,-160 568.9354,-160"/>
<polygon fill="#000000" stroke="#000000" points="568.9354,-156.5001 558.9354,-160 568.9354,-163.5001 568.9354,-156.5001"/>
</g>
<!-- ProfileComponent -->
<g id="node3" class="node">
<title>ProfileComponent</title>
<polygon fill="#ffffb3" stroke="#000000" points="650.9328,-122 531.0672,-122 531.0672,-86 650.9328,-86 650.9328,-122"/>
<text text-anchor="middle" x="591" y="-99.8" font-family="Times,serif" font-size="14.00" fill="#000000">ProfileComponent</text>
</g>
<!-- ProfileComponent&#45;&gt;DetailModule -->
<g id="edge3" class="edge">
<title>ProfileComponent&#45;&gt;DetailModule</title>
<path fill="none" stroke="#000000" d="M545.0813,-122.1061C545.0813,-122.1061 545.0813,-140.991 545.0813,-140.991"/>
<polygon fill="#000000" stroke="#000000" points="541.5814,-140.9909 545.0813,-150.991 548.5814,-140.991 541.5814,-140.9909"/>
</g>
<!-- ProfileEditionComponent -->
<g id="node4" class="node">
<title>ProfileEditionComponent</title>
<polygon fill="#ffffb3" stroke="#000000" points="513.1568,-122 352.8432,-122 352.8432,-86 513.1568,-86 513.1568,-122"/>
<text text-anchor="middle" x="433" y="-99.8" font-family="Times,serif" font-size="14.00" fill="#000000">ProfileEditionComponent</text>
</g>
<!-- ProfileEditionComponent&#45;&gt;DetailModule -->
<g id="edge4" class="edge">
<title>ProfileEditionComponent&#45;&gt;DetailModule</title>
<path fill="none" stroke="#000000" d="M489.2248,-122.1061C489.2248,-122.1061 489.2248,-140.991 489.2248,-140.991"/>
<polygon fill="#000000" stroke="#000000" points="485.7248,-140.9909 489.2248,-150.991 492.7248,-140.991 485.7248,-140.9909"/>
</g>
<!-- ConquestsComponent  -->
<g id="node8" class="node">
<title>ConquestsComponent </title>
<polygon fill="#fb8072" stroke="#000000" points="734.6635,-252 591.3365,-252 591.3365,-216 734.6635,-216 734.6635,-252"/>
<text text-anchor="middle" x="663" y="-229.8" font-family="Times,serif" font-size="14.00" fill="#000000">ConquestsComponent </text>
</g>
<!-- DetailModule&#45;&gt;ConquestsComponent  -->
<g id="edge7" class="edge">
<title>DetailModule&#45;&gt;ConquestsComponent </title>
<path fill="none" stroke="#000000" stroke-dasharray="5,2" d="M558.8873,-178C588.4482,-178 621.0672,-178 621.0672,-178 621.0672,-178 621.0672,-205.973 621.0672,-205.973"/>
<polygon fill="#000000" stroke="#000000" points="617.5672,-205.973 621.0672,-215.973 624.5672,-205.973 617.5672,-205.973"/>
</g>
<!-- ProfileComponent  -->
<g id="node9" class="node">
<title>ProfileComponent </title>
<polygon fill="#fb8072" stroke="#000000" points="573.432,-252 450.568,-252 450.568,-216 573.432,-216 573.432,-252"/>
<text text-anchor="middle" x="512" y="-229.8" font-family="Times,serif" font-size="14.00" fill="#000000">ProfileComponent </text>
</g>
<!-- DetailModule&#45;&gt;ProfileComponent  -->
<g id="edge8" class="edge">
<title>DetailModule&#45;&gt;ProfileComponent </title>
<path fill="none" stroke="#000000" stroke-dasharray="5,2" d="M512,-187.1061C512,-187.1061 512,-205.991 512,-205.991"/>
<polygon fill="#000000" stroke="#000000" points="508.5001,-205.9909 512,-215.991 515.5001,-205.991 508.5001,-205.9909"/>
</g>
<!-- ProfileEditionComponent  -->
<g id="node10" class="node">
<title>ProfileEditionComponent </title>
<polygon fill="#fb8072" stroke="#000000" points="432.1565,-252 267.8435,-252 267.8435,-216 432.1565,-216 432.1565,-252"/>
<text text-anchor="middle" x="350" y="-229.8" font-family="Times,serif" font-size="14.00" fill="#000000">ProfileEditionComponent </text>
</g>
<!-- DetailModule&#45;&gt;ProfileEditionComponent  -->
<g id="edge9" class="edge">
<title>DetailModule&#45;&gt;ProfileEditionComponent </title>
<path fill="none" stroke="#000000" stroke-dasharray="5,2" d="M465.0644,-178C431.5507,-178 392.375,-178 392.375,-178 392.375,-178 392.375,-205.973 392.375,-205.973"/>
<polygon fill="#000000" stroke="#000000" points="388.8751,-205.973 392.375,-215.973 395.8751,-205.973 388.8751,-205.973"/>
</g>
<!-- DetailRoutingModule -->
<g id="node6" class="node">
<title>DetailRoutingModule</title>
<polygon fill="#8dd3c7" stroke="#000000" points="329.3753,-122 326.3753,-126 305.3753,-126 302.3753,-122 190.6247,-122 190.6247,-86 329.3753,-86 329.3753,-122"/>
<text text-anchor="middle" x="260" y="-99.8" font-family="Times,serif" font-size="14.00" fill="#000000">DetailRoutingModule</text>
</g>
<!-- DetailRoutingModule&#45;&gt;DetailModule -->
<g id="edge5" class="edge">
<title>DetailRoutingModule&#45;&gt;DetailModule</title>
<path fill="none" stroke="#000000" d="M298.6797,-122.027C298.6797,-138.3976 298.6797,-160 298.6797,-160 298.6797,-160 455.186,-160 455.186,-160"/>
<polygon fill="#000000" stroke="#000000" points="455.186,-163.5001 465.186,-160 455.1859,-156.5001 455.186,-163.5001"/>
</g>
<!-- HomeContainerModule -->
<g id="node7" class="node">
<title>HomeContainerModule</title>
<polygon fill="#8dd3c7" stroke="#000000" points="172.4692,-122 169.4692,-126 148.4692,-126 145.4692,-122 23.5308,-122 23.5308,-86 172.4692,-86 172.4692,-122"/>
<text text-anchor="middle" x="98" y="-99.8" font-family="Times,serif" font-size="14.00" fill="#000000">HomeContainerModule</text>
</g>
<!-- HomeContainerModule&#45;&gt;DetailModule -->
<g id="edge6" class="edge">
<title>HomeContainerModule&#45;&gt;DetailModule</title>
<path fill="none" stroke="#000000" d="M98,-122.1061C98,-141.3391 98,-169 98,-169 98,-169 454.912,-169 454.912,-169"/>
<polygon fill="#000000" stroke="#000000" points="454.912,-172.5001 464.912,-169 454.912,-165.5001 454.912,-172.5001"/>
</g>
</g>
</svg>
