<?xml version="1.0" encoding="UTF-8" standalone="no"?>
<!DOCTYPE svg PUBLIC "-//W3C//DTD SVG 1.1//EN"
 "http://www.w3.org/Graphics/SVG/1.1/DTD/svg11.dtd">
<!-- Generated by graphviz version 2.40.1 (20161225.0304)
 -->
<!-- Title: dependencies Pages: 1 -->
<svg width="504pt" height="284pt"
 viewBox="0.00 0.00 504.00 284.00" xmlns="http://www.w3.org/2000/svg" xmlns:xlink="http://www.w3.org/1999/xlink">
<g id="graph0" class="graph" transform="scale(1 1) rotate(0) translate(4 280)">
<title>dependencies</title>
<polygon fill="#ffffff" stroke="transparent" points="-4,4 -4,-280 500,-280 500,4 -4,4"/>
<text text-anchor="start" x="227.0091" y="-42.4" font-family="sans-serif" font-weight="bold" font-size="14.00" fill="#000000">Legend</text>
<polygon fill="#ffffb3" stroke="transparent" points="14,-10 14,-30 34,-30 34,-10 14,-10"/>
<text text-anchor="start" x="37.629" y="-15.4" font-family="sans-serif" font-size="14.00" fill="#000000"> &#160;Declarations</text>
<polygon fill="#8dd3c7" stroke="transparent" points="127,-10 127,-30 147,-30 147,-10 127,-10"/>
<text text-anchor="start" x="150.7251" y="-15.4" font-family="sans-serif" font-size="14.00" fill="#000000"> &#160;Module</text>
<polygon fill="#80b1d3" stroke="transparent" points="213,-10 213,-30 233,-30 233,-10 213,-10"/>
<text text-anchor="start" x="236.7812" y="-15.4" font-family="sans-serif" font-size="14.00" fill="#000000"> &#160;Bootstrap</text>
<polygon fill="#fdb462" stroke="transparent" points="310,-10 310,-30 330,-30 330,-10 310,-10"/>
<text text-anchor="start" x="333.6732" y="-15.4" font-family="sans-serif" font-size="14.00" fill="#000000"> &#160;Providers</text>
<polygon fill="#fb8072" stroke="transparent" points="406,-10 406,-30 426,-30 426,-10 406,-10"/>
<text text-anchor="start" x="429.7258" y="-15.4" font-family="sans-serif" font-size="14.00" fill="#000000"> &#160;Exports</text>
<g id="clust1" class="cluster">
<title>cluster_PlayModule</title>
<polygon fill="none" stroke="#000000" stroke-dasharray="1,5" points="79,-70 79,-268 417,-268 417,-70 79,-70"/>
</g>
<g id="clust2" class="cluster">
<title>cluster_PlayModule_declarations</title>
<polygon fill="none" stroke="#000000" points="259,-78 259,-130 409,-130 409,-78 259,-78"/>
</g>
<g id="clust4" class="cluster">
<title>cluster_PlayModule_imports</title>
<polygon fill="none" stroke="#000000" points="87,-78 87,-130 251,-130 251,-78 87,-78"/>
</g>
<g id="clust5" class="cluster">
<title>cluster_PlayModule_exports</title>
<polygon fill="none" stroke="#000000" points="175,-208 175,-260 327,-260 327,-208 175,-208"/>
</g>
<!-- SelectionComponent -->
<g id="node1" class="node">
<title>SelectionComponent</title>
<polygon fill="#ffffb3" stroke="#000000" points="400.9313,-122 267.0687,-122 267.0687,-86 400.9313,-86 400.9313,-122"/>
<text text-anchor="middle" x="334" y="-99.8" font-family="Times,serif" font-size="14.00" fill="#000000">SelectionComponent</text>
</g>
<!-- PlayModule -->
<g id="node2" class="node">
<title>PlayModule</title>
<polygon fill="#8dd3c7" stroke="#000000" points="293.4387,-187 290.4387,-191 269.4387,-191 266.4387,-187 208.5613,-187 208.5613,-151 293.4387,-151 293.4387,-187"/>
<text text-anchor="middle" x="251" y="-164.8" font-family="Times,serif" font-size="14.00" fill="#000000">PlayModule</text>
</g>
<!-- SelectionComponent&#45;&gt;PlayModule -->
<g id="edge1" class="edge">
<title>SelectionComponent&#45;&gt;PlayModule</title>
<path fill="none" stroke="#000000" d="M280.2518,-122.1061C280.2518,-122.1061 280.2518,-140.991 280.2518,-140.991"/>
<polygon fill="#000000" stroke="#000000" points="276.7518,-140.9909 280.2518,-150.991 283.7518,-140.991 276.7518,-140.9909"/>
</g>
<!-- SelectionComponent  -->
<g id="node4" class="node">
<title>SelectionComponent </title>
<polygon fill="#fb8072" stroke="#000000" points="319.4306,-252 182.5694,-252 182.5694,-216 319.4306,-216 319.4306,-252"/>
<text text-anchor="middle" x="251" y="-229.8" font-family="Times,serif" font-size="14.00" fill="#000000">SelectionComponent </text>
</g>
<!-- PlayModule&#45;&gt;SelectionComponent  -->
<g id="edge3" class="edge">
<title>PlayModule&#45;&gt;SelectionComponent </title>
<path fill="none" stroke="#000000" stroke-dasharray="5,2" d="M251,-187.1061C251,-187.1061 251,-205.991 251,-205.991"/>
<polygon fill="#000000" stroke="#000000" points="247.5001,-205.9909 251,-215.991 254.5001,-205.991 247.5001,-205.9909"/>
</g>
<!-- HomeContainerModule -->
<g id="node3" class="node">
<title>HomeContainerModule</title>
<polygon fill="#8dd3c7" stroke="#000000" points="243.4692,-122 240.4692,-126 219.4692,-126 216.4692,-122 94.5308,-122 94.5308,-86 243.4692,-86 243.4692,-122"/>
<text text-anchor="middle" x="169" y="-99.8" font-family="Times,serif" font-size="14.00" fill="#000000">HomeContainerModule</text>
</g>
<!-- HomeContainerModule&#45;&gt;PlayModule -->
<g id="edge2" class="edge">
<title>HomeContainerModule&#45;&gt;PlayModule</title>
<path fill="none" stroke="#000000" d="M226.1329,-122.1061C226.1329,-122.1061 226.1329,-140.991 226.1329,-140.991"/>
<polygon fill="#000000" stroke="#000000" points="222.633,-140.9909 226.1329,-150.991 229.633,-140.991 222.633,-140.9909"/>
</g>
</g>
</svg>
