<?xml version="1.0" encoding="UTF-8" standalone="no"?>
<!DOCTYPE svg PUBLIC "-//W3C//DTD SVG 1.1//EN"
 "http://www.w3.org/Graphics/SVG/1.1/DTD/svg11.dtd">
<!-- Generated by graphviz version 2.40.1 (20161225.0304)
 -->
<!-- Title: dependencies Pages: 1 -->
<svg width="504pt" height="284pt"
 viewBox="0.00 0.00 504.00 284.00" xmlns="http://www.w3.org/2000/svg" xmlns:xlink="http://www.w3.org/1999/xlink">
<g id="graph0" class="graph" transform="scale(1 1) rotate(0) translate(4 280)">
<title>dependencies</title>
<polygon fill="#ffffff" stroke="transparent" points="-4,4 -4,-280 500,-280 500,4 -4,4"/>
<text text-anchor="start" x="227.0091" y="-42.4" font-family="sans-serif" font-weight="bold" font-size="14.00" fill="#000000">Legend</text>
<polygon fill="#ffffb3" stroke="transparent" points="14,-10 14,-30 34,-30 34,-10 14,-10"/>
<text text-anchor="start" x="37.629" y="-15.4" font-family="sans-serif" font-size="14.00" fill="#000000"> &#160;Declarations</text>
<polygon fill="#8dd3c7" stroke="transparent" points="127,-10 127,-30 147,-30 147,-10 127,-10"/>
<text text-anchor="start" x="150.7251" y="-15.4" font-family="sans-serif" font-size="14.00" fill="#000000"> &#160;Module</text>
<polygon fill="#80b1d3" stroke="transparent" points="213,-10 213,-30 233,-30 233,-10 213,-10"/>
<text text-anchor="start" x="236.7812" y="-15.4" font-family="sans-serif" font-size="14.00" fill="#000000"> &#160;Bootstrap</text>
<polygon fill="#fdb462" stroke="transparent" points="310,-10 310,-30 330,-30 330,-10 310,-10"/>
<text text-anchor="start" x="333.6732" y="-15.4" font-family="sans-serif" font-size="14.00" fill="#000000"> &#160;Providers</text>
<polygon fill="#fb8072" stroke="transparent" points="406,-10 406,-30 426,-30 426,-10 406,-10"/>
<text text-anchor="start" x="429.7258" y="-15.4" font-family="sans-serif" font-size="14.00" fill="#000000"> &#160;Exports</text>
<g id="clust1" class="cluster">
<title>cluster_StaticModule</title>
<polygon fill="none" stroke="#000000" stroke-dasharray="1,5" points="26,-70 26,-268 470,-268 470,-70 26,-70"/>
</g>
<g id="clust2" class="cluster">
<title>cluster_StaticModule_declarations</title>
<polygon fill="none" stroke="#000000" points="188,-78 188,-130 462,-130 462,-78 188,-78"/>
</g>
<g id="clust5" class="cluster">
<title>cluster_StaticModule_imports</title>
<polygon fill="none" stroke="#000000" points="34,-78 34,-130 180,-130 180,-78 34,-78"/>
</g>
<g id="clust6" class="cluster">
<title>cluster_StaticModule_exports</title>
<polygon fill="none" stroke="#000000" points="113,-208 113,-260 394,-260 394,-208 113,-208"/>
</g>
<!-- FooterComponent -->
<g id="node1" class="node">
<title>FooterComponent</title>
<polygon fill="#ffffb3" stroke="#000000" points="453.8809,-122 336.1191,-122 336.1191,-86 453.8809,-86 453.8809,-122"/>
<text text-anchor="middle" x="395" y="-99.8" font-family="Times,serif" font-size="14.00" fill="#000000">FooterComponent</text>
</g>
<!-- StaticModule -->
<g id="node3" class="node">
<title>StaticModule</title>
<polygon fill="#8dd3c7" stroke="#000000" points="302.9344,-187 299.9344,-191 278.9344,-191 275.9344,-187 211.0656,-187 211.0656,-151 302.9344,-151 302.9344,-187"/>
<text text-anchor="middle" x="257" y="-164.8" font-family="Times,serif" font-size="14.00" fill="#000000">StaticModule</text>
</g>
<!-- FooterComponent&#45;&gt;StaticModule -->
<g id="edge1" class="edge">
<title>FooterComponent&#45;&gt;StaticModule</title>
<path fill="none" stroke="#000000" d="M360.875,-122.1061C360.875,-141.3391 360.875,-169 360.875,-169 360.875,-169 312.8635,-169 312.8635,-169"/>
<polygon fill="#000000" stroke="#000000" points="312.8635,-165.5001 302.8635,-169 312.8634,-172.5001 312.8635,-165.5001"/>
</g>
<!-- HeaderComponent -->
<g id="node2" class="node">
<title>HeaderComponent</title>
<polygon fill="#ffffb3" stroke="#000000" points="317.7437,-122 196.2563,-122 196.2563,-86 317.7437,-86 317.7437,-122"/>
<text text-anchor="middle" x="257" y="-99.8" font-family="Times,serif" font-size="14.00" fill="#000000">HeaderComponent</text>
</g>
<!-- HeaderComponent&#45;&gt;StaticModule -->
<g id="edge2" class="edge">
<title>HeaderComponent&#45;&gt;StaticModule</title>
<path fill="none" stroke="#000000" d="M257,-122.1061C257,-122.1061 257,-140.991 257,-140.991"/>
<polygon fill="#000000" stroke="#000000" points="253.5001,-140.9909 257,-150.991 260.5001,-140.991 253.5001,-140.9909"/>
</g>
<!-- FooterComponent  -->
<g id="node5" class="node">
<title>FooterComponent </title>
<polygon fill="#fb8072" stroke="#000000" points="385.8814,-252 264.1186,-252 264.1186,-216 385.8814,-216 385.8814,-252"/>
<text text-anchor="middle" x="325" y="-229.8" font-family="Times,serif" font-size="14.00" fill="#000000">FooterComponent </text>
</g>
<!-- StaticModule&#45;&gt;FooterComponent  -->
<g id="edge4" class="edge">
<title>StaticModule&#45;&gt;FooterComponent </title>
<path fill="none" stroke="#000000" stroke-dasharray="5,2" d="M283.5132,-187.1061C283.5132,-187.1061 283.5132,-205.991 283.5132,-205.991"/>
<polygon fill="#000000" stroke="#000000" points="280.0132,-205.9909 283.5132,-215.991 287.0132,-205.991 280.0132,-205.9909"/>
</g>
<!-- HeaderComponent  -->
<g id="node6" class="node">
<title>HeaderComponent </title>
<polygon fill="#fb8072" stroke="#000000" points="246.7436,-252 121.2564,-252 121.2564,-216 246.7436,-216 246.7436,-252"/>
<text text-anchor="middle" x="184" y="-229.8" font-family="Times,serif" font-size="14.00" fill="#000000">HeaderComponent </text>
</g>
<!-- StaticModule&#45;&gt;HeaderComponent  -->
<g id="edge5" class="edge">
<title>StaticModule&#45;&gt;HeaderComponent </title>
<path fill="none" stroke="#000000" stroke-dasharray="5,2" d="M228.9525,-187.1061C228.9525,-187.1061 228.9525,-205.991 228.9525,-205.991"/>
<polygon fill="#000000" stroke="#000000" points="225.4526,-205.9909 228.9525,-215.991 232.4526,-205.991 225.4526,-205.9909"/>
</g>
<!-- StaticRoutesModule -->
<g id="node4" class="node">
<title>StaticRoutesModule</title>
<polygon fill="#8dd3c7" stroke="#000000" points="172.3202,-122 169.3202,-126 148.3202,-126 145.3202,-122 41.6798,-122 41.6798,-86 172.3202,-86 172.3202,-122"/>
<text text-anchor="middle" x="107" y="-99.8" font-family="Times,serif" font-size="14.00" fill="#000000">StaticRoutesModule</text>
</g>
<!-- StaticRoutesModule&#45;&gt;StaticModule -->
<g id="edge3" class="edge">
<title>StaticRoutesModule&#45;&gt;StaticModule</title>
<path fill="none" stroke="#000000" d="M146.7691,-122.1061C146.7691,-141.3391 146.7691,-169 146.7691,-169 146.7691,-169 201.2098,-169 201.2098,-169"/>
<polygon fill="#000000" stroke="#000000" points="201.2098,-172.5001 211.2098,-169 201.2098,-165.5001 201.2098,-172.5001"/>
</g>
</g>
</svg>
